<?xml version="1.0" encoding="UTF-8"?>
<!DOCTYPE svg PUBLIC "-//W3C//DTD SVG 1.1//EN" "http://www.w3.org/Graphics/SVG/1.1/DTD/svg11.dtd">
<svg xmlns="http://www.w3.org/2000/svg" version="1.1" width="363px" height="355px" style="shape-rendering:geometricPrecision; text-rendering:geometricPrecision; image-rendering:optimizeQuality; fill-rule:evenodd; clip-rule:evenodd" xmlns:xlink="http://www.w3.org/1999/xlink">
<g><path style="opacity:1" fill="#c6d2d4" d="M -0.5,-0.5 C 53.1667,-0.5 106.833,-0.5 160.5,-0.5C 160.5,1.16667 160.5,2.83333 160.5,4.5C 159.167,4.5 157.833,4.5 156.5,4.5C 156.5,5.83333 156.5,7.16667 156.5,8.5C 149.833,8.5 143.167,8.5 136.5,8.5C 136.5,9.83333 136.5,11.1667 136.5,12.5C 133.833,12.5 131.167,12.5 128.5,12.5C 128.5,17.8333 128.5,23.1667 128.5,28.5C 126.473,28.3379 124.473,28.5045 122.5,29C 123.737,29.2321 124.737,29.7321 125.5,30.5C 123.234,30.8588 121.401,30.1922 120,28.5C 115.987,29.9185 111.487,30.5852 106.5,30.5C 106.767,27.225 105.767,26.3916 103.5,28C 101.19,28.4966 98.8568,28.6633 96.5,28.5C 96.5,29.8333 96.5,31.1667 96.5,32.5C 91.1667,32.5 85.8333,32.5 80.5,32.5C 80.5,33.8333 80.5,35.1667 80.5,36.5C 75.1667,36.5 69.8333,36.5 64.5,36.5C 64.5,35.1667 64.5,33.8333 64.5,32.5C 59.1667,32.5 53.8333,32.5 48.5,32.5C 48.5,33.8333 48.5,35.1667 48.5,36.5C 45.8333,36.5 43.1667,36.5 40.5,36.5C 40.5,39.1667 40.5,41.8333 40.5,44.5C 37.8333,44.5 35.1667,44.5 32.5,44.5C 32.5,52.5 32.5,60.5 32.5,68.5C 29.8333,68.5 27.1667,68.5 24.5,68.5C 24.8165,57.9809 24.8165,47.3142 24.5,36.5C 19.1667,36.5 13.8333,36.5 8.5,36.5C 8.5,44.5 8.5,52.5 8.5,60.5C 7.16667,60.5 5.83333,60.5 4.5,60.5C 4.5,68.5 4.5,76.5 4.5,84.5C 3.16667,84.5 1.83333,84.5 0.5,84.5C 0.8064,87.3854 0.473067,90.0521 -0.5,92.5C -0.5,61.5 -0.5,30.5 -0.5,-0.5 Z"/></g>
<g><path style="opacity:1" fill="#c6d3d6" d="M 184.5,-0.5 C 243.833,-0.5 303.167,-0.5 362.5,-0.5C 362.5,14.5 362.5,29.5 362.5,44.5C 361.833,46.5 361.167,48.5 360.5,50.5C 361.639,43.5766 359.639,37.91 354.5,33.5C 353.738,31.7376 352.404,30.7376 350.5,30.5C 350.5,29.8333 350.167,29.5 349.5,29.5C 334.817,22.0887 323.15,25.422 314.5,39.5C 313.32,37.087 311.32,36.087 308.5,36.5C 308.84,39.1441 308.173,41.4775 306.5,43.5C 303.232,44.487 299.898,44.8204 296.5,44.5C 296.5,41.8333 296.5,39.1667 296.5,36.5C 293.833,36.5 291.167,36.5 288.5,36.5C 288.5,39.1667 288.5,41.8333 288.5,44.5C 285.833,44.5 283.167,44.5 280.5,44.5C 280.5,40.5 280.5,36.5 280.5,32.5C 277.833,32.5 275.167,32.5 272.5,32.5C 272.5,35.1667 272.5,37.8333 272.5,40.5C 270.076,40.8076 267.743,40.4742 265.5,39.5C 264.574,35.9062 264.241,32.2396 264.5,28.5C 261.833,28.5 259.167,28.5 256.5,28.5C 256.5,27.1667 256.5,25.8333 256.5,24.5C 251.167,24.5 245.833,24.5 240.5,24.5C 240.5,23.1667 240.5,21.8333 240.5,20.5C 235.167,20.5 229.833,20.5 224.5,20.5C 224.5,19.1667 224.5,17.8333 224.5,16.5C 223.167,16.5 221.833,16.5 220.5,16.5C 220.5,17.5 220.5,18.5 220.5,19.5C 219.167,19.5 217.833,19.5 216.5,19.5C 216.663,17.1432 216.497,14.8098 216,12.5C 215.333,17.8333 214.667,17.8333 214,12.5C 212.983,15.028 211.816,15.028 210.5,12.5C 209.808,13.0253 209.308,13.6919 209,14.5C 207.872,12.6547 207.372,10.6547 207.5,8.5C 205.167,8.5 202.833,8.5 200.5,8.5C 200.5,7.16667 200.5,5.83333 200.5,4.5C 195.167,4.5 189.833,4.5 184.5,4.5C 184.5,2.83333 184.5,1.16667 184.5,-0.5 Z"/></g>
<g><path style="opacity:1" fill="#c8d7dd" d="M 160.5,-0.5 C 168.5,-0.5 176.5,-0.5 184.5,-0.5C 184.5,1.16667 184.5,2.83333 184.5,4.5C 189.833,4.5 195.167,4.5 200.5,4.5C 200.5,5.83333 200.5,7.16667 200.5,8.5C 202.833,8.5 205.167,8.5 207.5,8.5C 207.372,10.6547 207.872,12.6547 209,14.5C 209.308,13.6919 209.808,13.0253 210.5,12.5C 211.816,15.028 212.983,15.028 214,12.5C 214.667,17.8333 215.333,17.8333 216,12.5C 216.497,14.8098 216.663,17.1432 216.5,19.5C 217.833,19.5 219.167,19.5 220.5,19.5C 220.5,18.5 220.5,17.5 220.5,16.5C 221.833,16.5 223.167,16.5 224.5,16.5C 224.5,17.8333 224.5,19.1667 224.5,20.5C 229.833,20.5 235.167,20.5 240.5,20.5C 240.5,21.8333 240.5,23.1667 240.5,24.5C 245.833,24.5 251.167,24.5 256.5,24.5C 256.5,25.8333 256.5,27.1667 256.5,28.5C 259.167,28.5 261.833,28.5 264.5,28.5C 264.241,32.2396 264.574,35.9062 265.5,39.5C 267.743,40.4742 270.076,40.8076 272.5,40.5C 272.5,37.8333 272.5,35.1667 272.5,32.5C 275.167,32.5 277.833,32.5 280.5,32.5C 280.5,36.5 280.5,40.5 280.5,44.5C 283.167,44.5 285.833,44.5 288.5,44.5C 288.5,41.8333 288.5,39.1667 288.5,36.5C 291.167,36.5 293.833,36.5 296.5,36.5C 296.5,39.1667 296.5,41.8333 296.5,44.5C 299.898,44.8204 303.232,44.487 306.5,43.5C 308.173,41.4775 308.84,39.1441 308.5,36.5C 311.32,36.087 313.32,37.087 314.5,39.5C 312.549,47.033 313.549,54.033 317.5,60.5C 325.873,72.0536 336.539,74.5536 349.5,68C 355.843,63.8286 359.51,57.9953 360.5,50.5C 361.167,48.5 361.833,46.5 362.5,44.5C 362.5,47.1667 362.5,49.8333 362.5,52.5C 361.226,57.9781 358.392,62.6447 354,66.5C 353.421,69.5881 352.087,72.2548 350,74.5C 349.667,74.1667 349.333,73.8333 349,73.5C 342.921,78.397 336.588,78.7304 330,74.5C 327.04,75.3227 326.873,76.656 329.5,78.5C 328.638,80.767 326.971,81.767 324.5,81.5C 322.926,85.8165 320.926,89.9831 318.5,94C 320.319,96.4893 322.152,98.9893 324,101.5C 324.818,104.227 324.652,106.894 323.5,109.5C 321.69,107.469 319.69,105.802 317.5,104.5C 314.096,98.6996 310.429,93.0329 306.5,87.5C 294.705,71.3691 280.372,58.0358 263.5,47.5C 230.772,26.7386 195.105,19.0719 156.5,24.5C 145.836,25.9446 135.503,28.6113 125.5,32.5C 125.5,31.8333 125.5,31.1667 125.5,30.5C 124.737,29.7321 123.737,29.2321 122.5,29C 124.473,28.5045 126.473,28.3379 128.5,28.5C 128.5,23.1667 128.5,17.8333 128.5,12.5C 131.167,12.5 133.833,12.5 136.5,12.5C 136.5,11.1667 136.5,9.83333 136.5,8.5C 143.167,8.5 149.833,8.5 156.5,8.5C 156.5,7.16667 156.5,5.83333 156.5,4.5C 157.833,4.5 159.167,4.5 160.5,4.5C 160.5,2.83333 160.5,1.16667 160.5,-0.5 Z"/></g>
<g><path style="opacity:1" fill="#c7d4d7" d="M 125.5,30.5 C 125.5,31.1667 125.5,31.8333 125.5,32.5C 91.9667,45.3786 65.3,66.7119 45.5,96.5C 24.523,130.341 17.523,167.008 24.5,206.5C 24.8416,233.148 24.8416,260.482 24.5,288.5C 24.6493,290.32 25.3159,291.82 26.5,293C 22.5,293.667 22.5,294.333 26.5,295C 25.2799,296.525 24.6132,298.359 24.5,300.5C 24.6132,302.641 25.2799,304.475 26.5,306C 22.6395,306.569 22.6395,307.402 26.5,308.5C 24.6206,313.6 23.9539,318.933 24.5,324.5C 22.5,324.5 20.5,324.5 18.5,324.5C 18.5,325.833 18.5,327.167 18.5,328.5C 23.1667,328.5 27.8333,328.5 32.5,328.5C 32.5,329.833 32.5,331.167 32.5,332.5C 37.8673,332.359 43.2006,332.192 48.5,332C 49.1667,332.333 49.8333,332.667 50.5,333C 49.0267,333.71 48.3601,334.876 48.5,336.5C 51.1667,336.5 53.8333,336.5 56.5,336.5C 56.5,342.5 56.5,348.5 56.5,354.5C 37.5,354.5 18.5,354.5 -0.5,354.5C -0.5,267.167 -0.5,179.833 -0.5,92.5C 0.473067,90.0521 0.8064,87.3854 0.5,84.5C 1.83333,84.5 3.16667,84.5 4.5,84.5C 4.5,76.5 4.5,68.5 4.5,60.5C 5.83333,60.5 7.16667,60.5 8.5,60.5C 8.5,52.5 8.5,44.5 8.5,36.5C 13.8333,36.5 19.1667,36.5 24.5,36.5C 24.8165,47.3142 24.8165,57.9809 24.5,68.5C 27.1667,68.5 29.8333,68.5 32.5,68.5C 32.5,60.5 32.5,52.5 32.5,44.5C 35.1667,44.5 37.8333,44.5 40.5,44.5C 40.5,41.8333 40.5,39.1667 40.5,36.5C 43.1667,36.5 45.8333,36.5 48.5,36.5C 48.5,35.1667 48.5,33.8333 48.5,32.5C 53.8333,32.5 59.1667,32.5 64.5,32.5C 64.5,33.8333 64.5,35.1667 64.5,36.5C 69.8333,36.5 75.1667,36.5 80.5,36.5C 80.5,35.1667 80.5,33.8333 80.5,32.5C 85.8333,32.5 91.1667,32.5 96.5,32.5C 96.5,31.1667 96.5,29.8333 96.5,28.5C 98.8568,28.6633 101.19,28.4966 103.5,28C 105.767,26.3916 106.767,27.225 106.5,30.5C 111.487,30.5852 115.987,29.9185 120,28.5C 121.401,30.1922 123.234,30.8588 125.5,30.5 Z"/></g>
<g><path style="opacity:1" fill="#052649" d="M 349.5,29.5 C 350.167,29.5 350.5,29.8333 350.5,30.5C 350.84,32.679 351.84,34.5123 353.5,36C 352.476,38.5485 351.31,41.0485 350,43.5C 348.957,41.2994 348.123,38.9661 347.5,36.5C 343.109,33.7016 338.442,33.0349 333.5,34.5C 333.709,35.086 334.043,35.586 334.5,36C 338.594,36.5569 342.594,37.3902 346.5,38.5C 346.571,41.3113 347.238,43.978 348.5,46.5C 348.333,47.1667 348.167,47.8333 348,48.5C 347.722,47.5842 347.222,46.9175 346.5,46.5C 345.628,40.6224 342.128,37.6224 336,37.5C 332.122,37.8864 329.622,39.8864 328.5,43.5C 328.092,42.3569 327.425,41.3569 326.5,40.5C 325.719,41.7366 324.719,42.7366 323.5,43.5C 322.5,41.8333 321.167,40.5 319.5,39.5C 320.693,37.4733 322.36,35.9733 324.5,35C 323.833,34.6667 323.167,34.3333 322.5,34C 330.532,27.3902 339.532,25.8902 349.5,29.5 Z"/></g>
<g><path style="opacity:1" fill="#0b223c" d="M 349.5,29.5 C 339.532,25.8902 330.532,27.3902 322.5,34C 323.167,34.3333 323.833,34.6667 324.5,35C 322.36,35.9733 320.693,37.4733 319.5,39.5C 321.167,40.5 322.5,41.8333 323.5,43.5C 324.719,42.7366 325.719,41.7366 326.5,40.5C 327.425,41.3569 328.092,42.3569 328.5,43.5C 327.314,49.8494 328.98,55.1828 333.5,59.5C 331.284,58.7974 329.451,57.4641 328,55.5C 326.989,56.3366 325.822,56.67 324.5,56.5C 324.18,53.0195 324.013,49.6862 324,46.5C 321.962,50.8956 320.795,55.5623 320.5,60.5C 319.5,60.5 318.5,60.5 317.5,60.5C 313.549,54.033 312.549,47.033 314.5,39.5C 323.15,25.422 334.817,22.0887 349.5,29.5 Z"/></g>
<g><path style="opacity:1" fill="#f9fbfa" d="M 162.5,43.5 C 181.437,42.4188 200.104,44.0854 218.5,48.5C 257.245,61.5846 285.245,86.5846 302.5,123.5C 302.649,124.552 302.483,125.552 302,126.5C 301.667,126.167 301.333,125.833 301,125.5C 300.503,127.81 300.337,130.143 300.5,132.5C 301.833,132.5 303.167,132.5 304.5,132.5C 303.958,143.025 303.958,153.692 304.5,164.5C 307.167,164.5 309.833,164.5 312.5,164.5C 314.167,171.5 311.5,174.167 304.5,172.5C 304.773,174.451 304.107,175.951 302.5,177C 296.5,177.333 290.5,177.667 284.5,178C 286.5,178.333 288.5,178.667 290.5,179C 285.833,179.333 281.167,179.667 276.5,180C 275.915,181.302 275.249,182.469 274.5,183.5C 273.806,135.316 250.806,103.15 205.5,87C 199.951,85.3233 194.285,84.4899 188.5,84.5C 169.14,82.2493 150.807,85.9159 133.5,95.5C 110.118,108.209 94.451,127.209 86.5,152.5C 79.4147,177.48 82.5813,201.147 96,223.5C 102.599,234.598 111.099,243.931 121.5,251.5C 123.647,253.737 125.98,255.737 128.5,257.5C 127.464,259.688 125.964,259.688 124,257.5C 120.257,258.141 116.423,258.141 112.5,257.5C 112.5,258.5 112.5,259.5 112.5,260.5C 103.161,260.334 93.8274,260.5 84.5,261C 83.2341,261.309 82.0674,261.809 81,262.5C 80.7811,261.062 80.2811,259.729 79.5,258.5C 76.1927,256.36 73.026,254.026 70,251.5C 71.0845,246.393 68.9178,244.06 63.5,244.5C 58.4595,237.086 54.4595,229.086 51.5,220.5C 52.244,216.336 53.5774,212.336 55.5,208.5C 56.4909,204.555 56.8242,200.555 56.5,196.5C 55.1667,196.5 53.8333,196.5 52.5,196.5C 52.5,192.5 52.5,188.5 52.5,184.5C 51.1266,184.343 49.7932,184.51 48.5,185C 49.1359,187.394 49.1359,189.894 48.5,192.5C 47.5,192.5 46.5,192.5 45.5,192.5C 45.6973,184.888 45.8639,177.221 46,169.5C 47.3561,170.38 48.8561,170.714 50.5,170.5C 50.8857,167.343 50.8857,164.343 50.5,161.5C 51.501,158.005 53.3343,155.005 56,152.5C 56.2189,153.938 56.7189,155.271 57.5,156.5C 58.1667,153.167 58.8333,149.833 59.5,146.5C 60.8415,144.995 62.5082,144.328 64.5,144.5C 63.6234,141.248 62.9567,137.915 62.5,134.5C 63.1245,131.095 63.6245,127.762 64,124.5C 63.6667,123.833 63.3333,123.167 63,122.5C 61.4117,124.968 59.5784,125.134 57.5,123C 59.4405,122.696 61.1072,121.863 62.5,120.5C 63.1667,120.833 63.8333,121.167 64.5,121.5C 65.0522,119.997 65.0522,118.331 64.5,116.5C 65.8333,116.5 67.1667,116.5 68.5,116.5C 68.5336,111.049 71.2002,108.382 76.5,108.5C 76.5,107.167 76.5,105.833 76.5,104.5C 77.8333,104.5 79.1667,104.5 80.5,104.5C 80.6715,102.508 80.0049,100.842 78.5,99.5C 80.0396,98.4679 80.5396,97.1346 80,95.5C 78.187,96.6091 77.3537,95.9424 77.5,93.5C 78.5,93.5 79.5,93.5 80.5,93.5C 80.5,92.5 80.5,91.5 80.5,90.5C 83.7345,91.576 87.0678,92.2427 90.5,92.5C 90.0423,89.6062 90.709,87.1062 92.5,85C 97.7255,85.0411 102.725,84.2078 107.5,82.5C 108.842,84.0049 110.508,84.6715 112.5,84.5C 112.5,80.5 112.5,76.5 112.5,72.5C 115.167,72.5 117.833,72.5 120.5,72.5C 120.5,71.1667 120.5,69.8333 120.5,68.5C 121.833,68.5 123.167,68.5 124.5,68.5C 124.423,65.9876 125.423,63.9876 127.5,62.5C 132.938,64.3876 138.605,65.0542 144.5,64.5C 144.5,63.1667 144.5,61.8333 144.5,60.5C 152.5,60.5 160.5,60.5 168.5,60.5C 168.5,58.5 168.5,56.5 168.5,54.5C 171.167,54.5 173.833,54.5 176.5,54.5C 176.5,56.5 176.5,58.5 176.5,60.5C 179.167,60.5 181.833,60.5 184.5,60.5C 184.187,57.7531 184.52,55.0865 185.5,52.5C 186.167,53.1667 186.833,53.8333 187.5,54.5C 190.212,52.7397 193.212,52.073 196.5,52.5C 196.5,50.8333 196.5,49.1667 196.5,47.5C 194.801,47.3398 193.134,47.5065 191.5,48C 192.696,48.6543 192.696,49.1543 191.5,49.5C 189.493,48.8291 187.66,47.8291 186,46.5C 181.274,49.4057 176.108,51.0723 170.5,51.5C 168.899,50.9653 168.399,49.9653 169,48.5C 172.209,49.8541 175.376,49.6875 178.5,48C 175.743,46.0465 173.243,46.2132 171,48.5C 169.806,47.5697 168.473,46.9031 167,46.5C 163.015,48.3873 158.848,48.8873 154.5,48C 155.167,47.6667 155.833,47.3333 156.5,47C 155.584,46.7216 154.918,46.2216 154.5,45.5C 157.28,44.9216 159.947,44.2549 162.5,43.5 Z"/></g>
<g><path style="opacity:1" fill="#2b4054" d="M 263.5,47.5 C 263.062,47.4346 262.728,47.6012 262.5,48C 263.667,49.5 264.833,51 266,52.5C 266.333,52.1667 266.667,51.8333 267,51.5C 269.167,53 271.333,54.5 273.5,56C 272.5,58.0907 273.167,59.7574 275.5,61C 280.079,60.9307 281.079,62.4307 278.5,65.5C 281.276,67.2787 280.943,68.2787 277.5,68.5C 275.956,68.2104 274.623,67.5437 273.5,66.5C 272.269,67.6507 272.269,68.8173 273.5,70C 275.167,70.3333 276.833,70.6667 278.5,71C 276.023,72.6427 273.69,74.476 271.5,76.5C 270.155,75.6533 269.155,74.4866 268.5,73C 266.22,72.7674 264.22,71.934 262.5,70.5C 261.569,67.0141 259.569,65.5141 256.5,66C 245.746,58.2876 234.08,52.121 221.5,47.5C 220.274,47.5195 219.274,47.8529 218.5,48.5C 200.104,44.0854 181.437,42.4188 162.5,43.5C 162.062,43.5654 161.728,43.3988 161.5,43C 165.655,40.7272 165.322,39.5605 160.5,39.5C 160.234,35.4295 160.567,31.4295 161.5,27.5C 160.053,26.0652 158.386,25.0652 156.5,24.5C 195.105,19.0719 230.772,26.7386 263.5,47.5 Z"/></g>
<g><path style="opacity:1" fill="#23b0f6" d="M 346.5,46.5 C 347.237,55.7634 342.904,60.0967 333.5,59.5C 328.98,55.1828 327.314,49.8494 328.5,43.5C 329.622,39.8864 332.122,37.8864 336,37.5C 342.128,37.6224 345.628,40.6224 346.5,46.5 Z"/></g>
<g><path style="opacity:1" fill="#092541" d="M 350.5,30.5 C 352.404,30.7376 353.738,31.7376 354.5,33.5C 355.749,35.6704 356.749,38.0037 357.5,40.5C 356.802,41.8626 356.802,43.0293 357.5,44C 357.045,46.3123 356.045,48.3123 354.5,50C 357.595,51.6349 358.429,53.8015 357,56.5C 356.667,56.1667 356.333,55.8333 356,55.5C 354.281,57.5571 352.281,59.2237 350,60.5C 349.05,59.9777 348.216,59.311 347.5,58.5C 346.784,59.311 345.95,59.9777 345,60.5C 341.039,60.2732 337.206,59.9398 333.5,59.5C 342.904,60.0967 347.237,55.7634 346.5,46.5C 347.222,46.9175 347.722,47.5842 348,48.5C 348.167,47.8333 348.333,47.1667 348.5,46.5C 347.238,43.978 346.571,41.3113 346.5,38.5C 342.594,37.3902 338.594,36.5569 334.5,36C 334.043,35.586 333.709,35.086 333.5,34.5C 338.442,33.0349 343.109,33.7016 347.5,36.5C 348.123,38.9661 348.957,41.2994 350,43.5C 351.31,41.0485 352.476,38.5485 353.5,36C 351.84,34.5123 350.84,32.679 350.5,30.5 Z"/></g>
<g><path style="opacity:1" fill="#0d2b41" d="M 354.5,33.5 C 359.639,37.91 361.639,43.5766 360.5,50.5C 359.51,57.9953 355.843,63.8286 349.5,68C 336.539,74.5536 325.873,72.0536 317.5,60.5C 318.5,60.5 319.5,60.5 320.5,60.5C 320.795,55.5623 321.962,50.8956 324,46.5C 324.013,49.6862 324.18,53.0195 324.5,56.5C 325.822,56.67 326.989,56.3366 328,55.5C 329.451,57.4641 331.284,58.7974 333.5,59.5C 337.206,59.9398 341.039,60.2732 345,60.5C 345.95,59.9777 346.784,59.311 347.5,58.5C 348.216,59.311 349.05,59.9777 350,60.5C 352.281,59.2237 354.281,57.5571 356,55.5C 356.333,55.8333 356.667,56.1667 357,56.5C 358.429,53.8015 357.595,51.6349 354.5,50C 356.045,48.3123 357.045,46.3123 357.5,44C 356.802,43.0293 356.802,41.8626 357.5,40.5C 356.749,38.0037 355.749,35.6704 354.5,33.5 Z"/></g>
<g><path style="opacity:1" fill="#293a4c" d="M 218.5,48.5 C 219.274,47.8529 220.274,47.5195 221.5,47.5C 234.08,52.121 245.746,58.2876 256.5,66C 259.569,65.5141 261.569,67.0141 262.5,70.5C 264.22,71.934 266.22,72.7674 268.5,73C 269.155,74.4866 270.155,75.6533 271.5,76.5C 273.69,74.476 276.023,72.6427 278.5,71C 276.833,70.6667 275.167,70.3333 273.5,70C 272.269,68.8173 272.269,67.6507 273.5,66.5C 274.623,67.5437 275.956,68.2104 277.5,68.5C 280.943,68.2787 281.276,67.2787 278.5,65.5C 281.079,62.4307 280.079,60.9307 275.5,61C 273.167,59.7574 272.5,58.0907 273.5,56C 271.333,54.5 269.167,53 267,51.5C 266.667,51.8333 266.333,52.1667 266,52.5C 264.833,51 263.667,49.5 262.5,48C 262.728,47.6012 263.062,47.4346 263.5,47.5C 280.372,58.0358 294.705,71.3691 306.5,87.5C 305.485,88.4602 305.485,89.6269 306.5,91C 310.368,94.2348 312.535,98.4014 313,103.5C 321.618,114.878 327.118,127.712 329.5,142C 328.713,144.099 328.38,146.266 328.5,148.5C 324.37,148.466 320.37,147.799 316.5,146.5C 316.404,150.311 315.738,150.311 314.5,146.5C 313.914,146.709 313.414,147.043 313,147.5C 312.562,143.81 311.395,141.144 309.5,139.5C 307.556,134.001 305.222,128.668 302.5,123.5C 285.245,86.5846 257.245,61.5846 218.5,48.5 Z"/></g>
<g><path style="opacity:1" fill="#f6f9fc" d="M 154.5,45.5 C 154.918,46.2216 155.584,46.7216 156.5,47C 155.833,47.3333 155.167,47.6667 154.5,48C 158.848,48.8873 163.015,48.3873 167,46.5C 168.473,46.9031 169.806,47.5697 171,48.5C 173.243,46.2132 175.743,46.0465 178.5,48C 175.376,49.6875 172.209,49.8541 169,48.5C 168.399,49.9653 168.899,50.9653 170.5,51.5C 176.108,51.0723 181.274,49.4057 186,46.5C 187.66,47.8291 189.493,48.8291 191.5,49.5C 192.696,49.1543 192.696,48.6543 191.5,48C 193.134,47.5065 194.801,47.3398 196.5,47.5C 196.5,49.1667 196.5,50.8333 196.5,52.5C 193.212,52.073 190.212,52.7397 187.5,54.5C 186.833,53.8333 186.167,53.1667 185.5,52.5C 184.52,55.0865 184.187,57.7531 184.5,60.5C 181.833,60.5 179.167,60.5 176.5,60.5C 176.5,58.5 176.5,56.5 176.5,54.5C 173.833,54.5 171.167,54.5 168.5,54.5C 168.5,56.5 168.5,58.5 168.5,60.5C 160.5,60.5 152.5,60.5 144.5,60.5C 144.5,61.8333 144.5,63.1667 144.5,64.5C 138.605,65.0542 132.938,64.3876 127.5,62.5C 125.423,63.9876 124.423,65.9876 124.5,68.5C 123.167,68.5 121.833,68.5 120.5,68.5C 120.5,69.8333 120.5,71.1667 120.5,72.5C 117.833,72.5 115.167,72.5 112.5,72.5C 112.5,76.5 112.5,80.5 112.5,84.5C 110.508,84.6715 108.842,84.0049 107.5,82.5C 102.725,84.2078 97.7255,85.0411 92.5,85C 90.709,87.1062 90.0423,89.6062 90.5,92.5C 87.0678,92.2427 83.7345,91.576 80.5,90.5C 80.5,91.5 80.5,92.5 80.5,93.5C 79.5,93.5 78.5,93.5 77.5,93.5C 77.3537,95.9424 78.187,96.6091 80,95.5C 80.5396,97.1346 80.0396,98.4679 78.5,99.5C 80.0049,100.842 80.6715,102.508 80.5,104.5C 79.1667,104.5 77.8333,104.5 76.5,104.5C 76.5,105.833 76.5,107.167 76.5,108.5C 71.2002,108.382 68.5336,111.049 68.5,116.5C 67.1667,116.5 65.8333,116.5 64.5,116.5C 65.0522,118.331 65.0522,119.997 64.5,121.5C 63.8333,121.167 63.1667,120.833 62.5,120.5C 61.1072,121.863 59.4405,122.696 57.5,123C 59.5784,125.134 61.4117,124.968 63,122.5C 63.3333,123.167 63.6667,123.833 64,124.5C 63.6245,127.762 63.1245,131.095 62.5,134.5C 62.9567,137.915 63.6234,141.248 64.5,144.5C 62.5082,144.328 60.8415,144.995 59.5,146.5C 58.8333,149.833 58.1667,153.167 57.5,156.5C 56.7189,155.271 56.2189,153.938 56,152.5C 53.3343,155.005 51.501,158.005 50.5,161.5C 50.8857,164.343 50.8857,167.343 50.5,170.5C 48.8561,170.714 47.3561,170.38 46,169.5C 45.8639,177.221 45.6973,184.888 45.5,192.5C 46.5,192.5 47.5,192.5 48.5,192.5C 49.1359,189.894 49.1359,187.394 48.5,185C 49.7932,184.51 51.1266,184.343 52.5,184.5C 52.5,188.5 52.5,192.5 52.5,196.5C 53.8333,196.5 55.1667,196.5 56.5,196.5C 56.8242,200.555 56.4909,204.555 55.5,208.5C 53.5774,212.336 52.244,216.336 51.5,220.5C 49.8916,217.79 48.7249,214.79 48,211.5C 43.1723,190.645 42.3389,169.645 45.5,148.5C 60.6481,92.0249 96.9814,57.6916 154.5,45.5 Z"/></g>
<g><path style="opacity:1" fill="#253f54" d="M 188.5,84.5 C 190.834,85.1237 193.167,85.957 195.5,87C 190.489,88.3101 185.489,88.4768 180.5,87.5C 181.908,90.5096 183.241,93.5096 184.5,96.5C 185.833,96.5 187.167,96.5 188.5,96.5C 188.34,98.1992 188.506,99.8659 189,101.5C 195.418,100.357 201.918,100.19 208.5,101C 205.578,101.417 202.911,102.417 200.5,104C 201.833,105 203.167,106 204.5,107C 203.552,107.483 202.552,107.649 201.5,107.5C 183.451,102.668 165.784,103.668 148.5,110.5C 147.48,109.046 146.313,108.713 145,109.5C 144.506,107.866 144.34,106.199 144.5,104.5C 143.167,104.5 141.833,104.5 140.5,104.5C 140.5,102.5 140.5,100.5 140.5,98.5C 137.937,97.9117 135.604,96.9117 133.5,95.5C 150.807,85.9159 169.14,82.2493 188.5,84.5 Z"/></g>
<g><path style="opacity:1" fill="#b7cad2" d="M 201.5,107.5 C 203.629,108.203 205.629,109.203 207.5,110.5C 206.957,110.56 206.624,110.893 206.5,111.5C 207.376,112.251 208.376,112.751 209.5,113C 209.167,113.333 208.833,113.667 208.5,114C 209.973,114.71 210.64,115.876 210.5,117.5C 209.167,117.5 207.833,117.5 206.5,117.5C 206.367,120.896 205.367,121.229 203.5,118.5C 202.449,119.885 201.116,120.885 199.5,121.5C 195.849,119.254 192.015,118.92 188,120.5C 186.072,120.067 184.239,119.4 182.5,118.5C 180.5,119 178.5,119.5 176.5,120C 172.123,122.349 167.457,124.016 162.5,125C 161.167,126.333 159.833,127.667 158.5,129C 156.109,130.035 153.776,130.202 151.5,129.5C 150.614,130.325 150.281,131.325 150.5,132.5C 146.758,133.218 143.758,135.218 141.5,138.5C 139.156,138.683 136.823,139.683 134.5,141.5C 132.527,143.902 131.027,146.569 130,149.5C 128.812,148.437 128.312,147.103 128.5,145.5C 125.901,145.549 123.734,146.549 122,148.5C 116.987,157.069 112.154,165.735 107.5,174.5C 106.199,172.556 105.199,170.556 104.5,168.5C 108.987,141.358 123.653,122.025 148.5,110.5C 165.784,103.668 183.451,102.668 201.5,107.5 Z"/></g>
<g><path style="opacity:1" fill="#c2d3da" d="M 207.5,110.5 C 223.934,116.936 236.268,127.936 244.5,143.5C 240.62,139.72 236.954,135.72 233.5,131.5C 226.884,132.628 220.218,132.795 213.5,132C 205.578,130.551 197.578,129.385 189.5,128.5C 186.493,128.767 183.493,129.101 180.5,129.5C 178.616,129.284 176.949,128.617 175.5,127.5C 166.825,129.35 158.492,132.017 150.5,135.5C 150.5,136.5 150.5,137.5 150.5,138.5C 147.068,138.757 143.734,139.424 140.5,140.5C 140.328,144.971 139.494,145.304 138,141.5C 137.309,149.012 133.476,154.012 126.5,156.5C 125.404,162.195 123.071,167.361 119.5,172C 120.477,178.808 119.311,185.308 116,191.5C 115.667,191.167 115.333,190.833 115,190.5C 113.506,196.29 112.006,201.957 110.5,207.5C 107.316,200.935 105.316,193.935 104.5,186.5C 104.5,180.5 104.5,174.5 104.5,168.5C 105.199,170.556 106.199,172.556 107.5,174.5C 112.154,165.735 116.987,157.069 122,148.5C 123.734,146.549 125.901,145.549 128.5,145.5C 128.312,147.103 128.812,148.437 130,149.5C 131.027,146.569 132.527,143.902 134.5,141.5C 136.823,139.683 139.156,138.683 141.5,138.5C 143.758,135.218 146.758,133.218 150.5,132.5C 150.281,131.325 150.614,130.325 151.5,129.5C 153.776,130.202 156.109,130.035 158.5,129C 159.833,127.667 161.167,126.333 162.5,125C 167.457,124.016 172.123,122.349 176.5,120C 178.5,119.5 180.5,119 182.5,118.5C 184.239,119.4 186.072,120.067 188,120.5C 192.015,118.92 195.849,119.254 199.5,121.5C 201.116,120.885 202.449,119.885 203.5,118.5C 205.367,121.229 206.367,120.896 206.5,117.5C 207.833,117.5 209.167,117.5 210.5,117.5C 210.64,115.876 209.973,114.71 208.5,114C 208.833,113.667 209.167,113.333 209.5,113C 208.376,112.751 207.376,112.251 206.5,111.5C 206.624,110.893 206.957,110.56 207.5,110.5 Z"/></g>
<g><path style="opacity:1" fill="#304e64" d="M 156.5,24.5 C 158.386,25.0652 160.053,26.0652 161.5,27.5C 160.567,31.4295 160.234,35.4295 160.5,39.5C 165.322,39.5605 165.655,40.7272 161.5,43C 161.728,43.3988 162.062,43.5654 162.5,43.5C 159.947,44.2549 157.28,44.9216 154.5,45.5C 96.9814,57.6916 60.6481,92.0249 45.5,148.5C 44.8333,149.5 44.1667,150.5 43.5,151.5C 43.5198,149.857 42.8532,148.524 41.5,147.5C 42.325,146.614 43.325,146.281 44.5,146.5C 45.2,141.783 45.2,137.116 44.5,132.5C 44.1667,131.167 43.8333,129.833 43.5,128.5C 42.0981,128.135 41.0981,127.301 40.5,126C 41.8847,124.403 42.5514,122.57 42.5,120.5C 43.8333,120.5 45.1667,120.5 46.5,120.5C 46.5,119.167 46.5,117.833 46.5,116.5C 48.604,116.799 50.604,116.466 52.5,115.5C 52.2448,113.657 52.0781,111.657 52,109.5C 50.9887,108.663 49.8221,108.33 48.5,108.5C 48.5,107.167 48.5,105.833 48.5,104.5C 47.448,104.351 46.448,104.517 45.5,105C 39.7457,113.218 38.579,113.051 42,104.5C 43.1667,102 45,100.167 47.5,99C 46.9341,98.0053 46.2674,97.172 45.5,96.5C 65.3,66.7119 91.9667,45.3786 125.5,32.5C 135.503,28.6113 145.836,25.9446 156.5,24.5 Z"/></g>
<g><path style="opacity:1" fill="#253b4d" d="M 133.5,95.5 C 135.604,96.9117 137.937,97.9117 140.5,98.5C 140.5,100.5 140.5,102.5 140.5,104.5C 141.833,104.5 143.167,104.5 144.5,104.5C 144.34,106.199 144.506,107.866 145,109.5C 146.313,108.713 147.48,109.046 148.5,110.5C 123.653,122.025 108.987,141.358 104.5,168.5C 104.5,174.5 104.5,180.5 104.5,186.5C 103.674,181.684 103.174,176.684 103,171.5C 102.205,178.218 102.372,184.884 103.5,191.5C 101.257,192.474 98.924,192.808 96.5,192.5C 96.5,191.5 96.5,190.5 96.5,189.5C 97.8734,189.657 99.2068,189.49 100.5,189C 98.1009,188.289 95.7676,188.456 93.5,189.5C 92.5224,189.023 91.6891,188.357 91,187.5C 90.6667,178.833 90.3333,170.167 90,161.5C 89.6667,161.167 89.3333,160.833 89,160.5C 88.6401,162.608 87.9734,164.608 87,166.5C 86.8138,161.633 86.6472,156.967 86.5,152.5C 94.451,127.209 110.118,108.209 133.5,95.5 Z"/></g>
<g><path style="opacity:1" fill="#ccdce1" d="M 244.5,143.5 C 254.598,162.398 256.098,182.065 249,202.5C 248.23,203.598 247.397,203.598 246.5,202.5C 246.631,201.761 246.464,201.094 246,200.5C 239.329,194.996 233.163,188.996 227.5,182.5C 229.167,182.5 230.833,182.5 232.5,182.5C 232.5,179.167 232.5,175.833 232.5,172.5C 235.167,172.5 237.833,172.5 240.5,172.5C 240.099,166.044 240.766,159.71 242.5,153.5C 242.167,152.5 241.833,151.5 241.5,150.5C 240.158,152.005 238.492,152.672 236.5,152.5C 236.5,153.833 236.5,155.167 236.5,156.5C 232.5,156.5 228.5,156.5 224.5,156.5C 224.5,155.167 224.5,153.833 224.5,152.5C 220.5,152.5 216.5,152.5 212.5,152.5C 212.5,151.167 212.5,149.833 212.5,148.5C 208.696,145.898 204.696,144.564 200.5,144.5C 200.5,145.833 200.5,147.167 200.5,148.5C 199.167,148.5 197.833,148.5 196.5,148.5C 196.657,147.127 196.49,145.793 196,144.5C 195.692,145.308 195.192,145.975 194.5,146.5C 193.667,144.5 192.833,142.5 192,140.5C 189.667,143.167 187.333,143.167 185,140.5C 179.792,142.259 174.292,143.093 168.5,143C 166.298,144.768 163.965,145.935 161.5,146.5C 158.97,143.882 156.637,144.049 154.5,147C 154.905,147.945 155.572,148.612 156.5,149C 155.207,149.49 153.873,149.657 152.5,149.5C 152.5,150.5 152.5,151.5 152.5,152.5C 151.167,152.5 149.833,152.5 148.5,152.5C 148.919,155.325 147.919,157.491 145.5,159C 145.833,159.333 146.167,159.667 146.5,160C 145.207,160.49 143.873,160.657 142.5,160.5C 142.819,162.75 142.319,164.75 141,166.5C 140.692,165.692 140.192,165.025 139.5,164.5C 136.995,169.527 135.995,174.86 136.5,180.5C 135.167,180.5 133.833,180.5 132.5,180.5C 132.5,181.833 132.5,183.167 132.5,184.5C 131.167,184.5 129.833,184.5 128.5,184.5C 128.762,183.022 128.429,181.689 127.5,180.5C 126.808,181.025 126.308,181.692 126,182.5C 126.645,187.153 126.478,191.82 125.5,196.5C 121.165,199.145 121.498,200.478 126.5,200.5C 126.268,207.22 125.602,213.887 124.5,220.5C 122.389,221.38 120.389,221.38 118.5,220.5C 115.048,216.701 112.382,212.368 110.5,207.5C 112.006,201.957 113.506,196.29 115,190.5C 115.333,190.833 115.667,191.167 116,191.5C 119.311,185.308 120.477,178.808 119.5,172C 123.071,167.361 125.404,162.195 126.5,156.5C 133.476,154.012 137.309,149.012 138,141.5C 139.494,145.304 140.328,144.971 140.5,140.5C 143.734,139.424 147.068,138.757 150.5,138.5C 150.5,137.5 150.5,136.5 150.5,135.5C 158.492,132.017 166.825,129.35 175.5,127.5C 176.949,128.617 178.616,129.284 180.5,129.5C 183.493,129.101 186.493,128.767 189.5,128.5C 197.578,129.385 205.578,130.551 213.5,132C 220.218,132.795 226.884,132.628 233.5,131.5C 236.954,135.72 240.62,139.72 244.5,143.5 Z"/></g>
<g><path style="opacity:1" fill="#2d435a" d="M 45.5,96.5 C 46.2674,97.172 46.9341,98.0053 47.5,99C 45,100.167 43.1667,102 42,104.5C 38.579,113.051 39.7457,113.218 45.5,105C 46.448,104.517 47.448,104.351 48.5,104.5C 48.5,105.833 48.5,107.167 48.5,108.5C 49.8221,108.33 50.9887,108.663 52,109.5C 52.0781,111.657 52.2448,113.657 52.5,115.5C 50.604,116.466 48.604,116.799 46.5,116.5C 46.5,117.833 46.5,119.167 46.5,120.5C 45.1667,120.5 43.8333,120.5 42.5,120.5C 42.5514,122.57 41.8847,124.403 40.5,126C 41.0981,127.301 42.0981,128.135 43.5,128.5C 43.8333,129.833 44.1667,131.167 44.5,132.5C 45.2,137.116 45.2,141.783 44.5,146.5C 43.325,146.281 42.325,146.614 41.5,147.5C 42.8532,148.524 43.5198,149.857 43.5,151.5C 41.8506,158.714 40.8506,166.047 40.5,173.5C 39.1667,173.5 37.8333,173.5 36.5,173.5C 36.5,174.5 36.5,175.5 36.5,176.5C 35.1667,176.5 33.8333,176.5 32.5,176.5C 32.8969,181.519 31.8969,186.186 29.5,190.5C 30.1928,195.267 31.1928,199.933 32.5,204.5C 31.5,204.5 30.5,204.5 29.5,204.5C 29.4001,207.667 30.0668,210.667 31.5,213.5C 31.5835,215.736 31.2502,218.07 30.5,220.5C 31.1667,221.167 31.8333,221.833 32.5,222.5C 32.2466,224.605 31.9133,226.605 31.5,228.5C 28.7319,221.2 26.3986,213.867 24.5,206.5C 17.523,167.008 24.523,130.341 45.5,96.5 Z"/></g>
<g><path style="opacity:1" fill="#213249" d="M 86.5,152.5 C 86.6472,156.967 86.8138,161.633 87,166.5C 87.9734,164.608 88.6401,162.608 89,160.5C 89.3333,160.833 89.6667,161.167 90,161.5C 90.3333,170.167 90.6667,178.833 91,187.5C 91.6891,188.357 92.5224,189.023 93.5,189.5C 95.7676,188.456 98.1009,188.289 100.5,189C 99.2068,189.49 97.8734,189.657 96.5,189.5C 96.5,190.5 96.5,191.5 96.5,192.5C 98.924,192.808 101.257,192.474 103.5,191.5C 102.372,184.884 102.205,178.218 103,171.5C 103.174,176.684 103.674,181.684 104.5,186.5C 105.316,193.935 107.316,200.935 110.5,207.5C 112.382,212.368 115.048,216.701 118.5,220.5C 122.794,226.129 127.461,231.463 132.5,236.5C 127.268,232.811 122.434,228.478 118,223.5C 115.739,219.071 112.572,215.404 108.5,212.5C 107.573,210.887 106.739,209.221 106,207.5C 105.667,207.833 105.333,208.167 105,208.5C 104.64,206.392 103.973,204.392 103,202.5C 100.581,204.754 98.7477,207.421 97.5,210.5C 97.2094,208.783 96.5428,206.783 95.5,204.5C 95.1667,205.5 94.8333,206.5 94.5,207.5C 96.2893,212.427 97.956,217.427 99.5,222.5C 100.935,220.599 102.602,220.266 104.5,221.5C 103.333,224.2 103.5,226.867 105,229.5C 107.331,233.029 110.497,235.029 114.5,235.5C 114.281,234.325 114.614,233.325 115.5,232.5C 116.83,234.347 116.497,235.847 114.5,237C 116.975,242.141 120.808,245.975 126,248.5C 126.711,252.498 125.711,253.165 123,250.5C 122.617,251.056 122.117,251.389 121.5,251.5C 111.099,243.931 102.599,234.598 96,223.5C 82.5813,201.147 79.4147,177.48 86.5,152.5 Z"/></g>
<g><path style="opacity:1" fill="#2c4e69" d="M 178.5,155.5 C 180.631,156.314 182.964,156.814 185.5,157C 191.599,161.978 198.599,164.478 206.5,164.5C 206.719,165.675 206.386,166.675 205.5,167.5C 200.828,169.084 199.828,171.751 202.5,175.5C 202.167,175.833 201.833,176.167 201.5,176.5C 196.55,176.817 191.55,176.817 186.5,176.5C 177.57,177.092 170.57,181.092 165.5,188.5C 164.778,188.918 164.278,189.584 164,190.5C 163.909,194.253 163.742,197.92 163.5,201.5C 158.476,202.408 153.476,203.408 148.5,204.5C 148.802,201.941 148.468,199.607 147.5,197.5C 147.335,194.482 147.502,191.482 148,188.5C 149.743,185.043 150.743,181.377 151,177.5C 152.856,174.444 154.689,171.444 156.5,168.5C 161.971,161.095 169.305,156.761 178.5,155.5 Z"/></g>
<g><path style="opacity:1" fill="#d2e2e6" d="M 227.5,182.5 C 219.679,175.097 211.679,167.93 203.5,161C 195.731,156.679 187.398,154.846 178.5,155.5C 169.305,156.761 161.971,161.095 156.5,168.5C 143.902,181.677 141.402,196.677 149,213.5C 150.752,216.672 152.752,219.672 155,222.5C 165.011,231.678 174.844,241.012 184.5,250.5C 169.314,252.454 154.98,249.787 141.5,242.5C 138.523,240.533 135.523,238.533 132.5,236.5C 127.461,231.463 122.794,226.129 118.5,220.5C 120.389,221.38 122.389,221.38 124.5,220.5C 125.602,213.887 126.268,207.22 126.5,200.5C 121.498,200.478 121.165,199.145 125.5,196.5C 126.478,191.82 126.645,187.153 126,182.5C 126.308,181.692 126.808,181.025 127.5,180.5C 128.429,181.689 128.762,183.022 128.5,184.5C 129.833,184.5 131.167,184.5 132.5,184.5C 132.5,183.167 132.5,181.833 132.5,180.5C 133.833,180.5 135.167,180.5 136.5,180.5C 135.995,174.86 136.995,169.527 139.5,164.5C 140.192,165.025 140.692,165.692 141,166.5C 142.319,164.75 142.819,162.75 142.5,160.5C 143.873,160.657 145.207,160.49 146.5,160C 146.167,159.667 145.833,159.333 145.5,159C 147.919,157.491 148.919,155.325 148.5,152.5C 149.833,152.5 151.167,152.5 152.5,152.5C 152.5,151.5 152.5,150.5 152.5,149.5C 153.873,149.657 155.207,149.49 156.5,149C 155.572,148.612 154.905,147.945 154.5,147C 156.637,144.049 158.97,143.882 161.5,146.5C 163.965,145.935 166.298,144.768 168.5,143C 174.292,143.093 179.792,142.259 185,140.5C 187.333,143.167 189.667,143.167 192,140.5C 192.833,142.5 193.667,144.5 194.5,146.5C 195.192,145.975 195.692,145.308 196,144.5C 196.49,145.793 196.657,147.127 196.5,148.5C 197.833,148.5 199.167,148.5 200.5,148.5C 200.5,147.167 200.5,145.833 200.5,144.5C 204.696,144.564 208.696,145.898 212.5,148.5C 212.5,149.833 212.5,151.167 212.5,152.5C 216.5,152.5 220.5,152.5 224.5,152.5C 224.5,153.833 224.5,155.167 224.5,156.5C 228.5,156.5 232.5,156.5 236.5,156.5C 236.5,155.167 236.5,153.833 236.5,152.5C 238.492,152.672 240.158,152.005 241.5,150.5C 241.833,151.5 242.167,152.5 242.5,153.5C 240.766,159.71 240.099,166.044 240.5,172.5C 237.833,172.5 235.167,172.5 232.5,172.5C 232.5,175.833 232.5,179.167 232.5,182.5C 230.833,182.5 229.167,182.5 227.5,182.5 Z"/></g>
<g><path style="opacity:1" fill="#f9fafa" d="M 186.5,176.5 C 195.998,181.987 204.665,188.654 212.5,196.5C 233.327,216.494 253.66,236.994 273.5,258C 281.274,263.039 287.941,269.206 293.5,276.5C 291.911,279.08 289.578,280.413 286.5,280.5C 286.5,281.833 286.5,283.167 286.5,284.5C 281.086,284.219 277.086,286.552 274.5,291.5C 271.701,292.004 269.201,293.004 267,294.5C 265.951,292.893 264.451,292.227 262.5,292.5C 263.164,286.975 260.664,284.309 255,284.5C 254.922,282.343 254.755,280.343 254.5,278.5C 252.922,277.702 251.256,277.202 249.5,277C 248.91,275.491 248.244,273.991 247.5,272.5C 246.749,273.376 246.249,274.376 246,275.5C 244.351,274.352 242.851,273.019 241.5,271.5C 242.5,270.833 243.5,270.167 244.5,269.5C 242.433,268.866 240.6,267.866 239,266.5C 239.482,261.879 239.982,257.212 240.5,252.5C 236.5,252.5 232.5,252.5 228.5,252.5C 228.5,251.167 228.5,249.833 228.5,248.5C 227.167,248.5 225.833,248.5 224.5,248.5C 224.5,247.167 224.5,245.833 224.5,244.5C 223.167,244.5 221.833,244.5 220.5,244.5C 220.773,242.042 219.773,240.375 217.5,239.5C 216.526,237.257 216.192,234.924 216.5,232.5C 213.833,232.167 211.167,231.833 208.5,231.5C 208.5,229.5 208.5,227.5 208.5,225.5C 205.833,225.833 203.167,226.167 200.5,226.5C 200.5,224.5 200.5,222.5 200.5,220.5C 197.102,220.18 193.768,220.513 190.5,221.5C 191.729,222.281 193.062,222.781 194.5,223C 193.606,224.104 192.606,225.27 191.5,226.5C 186.687,221.93 181.687,217.597 176.5,213.5C 174.833,211.5 173.167,209.5 171.5,207.5C 166.074,202.353 164.074,196.02 165.5,188.5C 170.57,181.092 177.57,177.092 186.5,176.5 Z"/></g>
<g><path style="opacity:1" fill="#1e3449" d="M 306.5,87.5 C 310.429,93.0329 314.096,98.6996 317.5,104.5C 326.781,121.343 332.447,139.343 334.5,158.5C 335.324,161.764 335.658,165.098 335.5,168.5C 336.542,190.457 333.375,211.791 326,232.5C 320.375,244.086 314.542,255.419 308.5,266.5C 305.45,264.869 302.117,263.869 298.5,263.5C 295.852,264.488 293.852,266.155 292.5,268.5C 291.624,266.078 290.124,265.412 288,266.5C 286.274,266.054 284.774,265.221 283.5,264C 284.973,263.29 285.64,262.124 285.5,260.5C 283.143,260.663 280.81,260.497 278.5,260C 274.767,256.001 270.934,252.168 267,248.5C 266.517,247.552 266.351,246.552 266.5,245.5C 269.139,242.893 268.972,240.226 266,237.5C 264.817,238.731 263.651,238.731 262.5,237.5C 261.239,235.547 260.073,233.547 259,231.5C 256.731,232.464 254.898,231.798 253.5,229.5C 253.833,228.5 254.5,227.833 255.5,227.5C 258.161,228.892 260.494,230.726 262.5,233C 264.476,233.188 266.476,233.021 268.5,232.5C 270.481,232.437 272.148,233.104 273.5,234.5C 273.833,234 274.167,233.5 274.5,233C 271.646,228.328 268.313,224.161 264.5,220.5C 264.945,217.72 264.945,215.053 264.5,212.5C 265.521,212.458 266.521,212.458 267.5,212.5C 266.844,214.484 266.178,216.484 265.5,218.5C 274.846,228.346 284.346,238.013 294,247.5C 310.187,222.253 316.854,194.586 314,164.5C 312.948,156.073 311.448,147.74 309.5,139.5C 311.395,141.144 312.562,143.81 313,147.5C 313.414,147.043 313.914,146.709 314.5,146.5C 315.738,150.311 316.404,150.311 316.5,146.5C 320.37,147.799 324.37,148.466 328.5,148.5C 328.38,146.266 328.713,144.099 329.5,142C 327.118,127.712 321.618,114.878 313,103.5C 312.535,98.4014 310.368,94.2348 306.5,91C 305.485,89.6269 305.485,88.4602 306.5,87.5 Z"/></g>
<g><path style="opacity:1" fill="#273c4e" d="M 188.5,84.5 C 194.285,84.4899 199.951,85.3233 205.5,87C 250.806,103.15 273.806,135.316 274.5,183.5C 273.043,193.467 270.71,203.133 267.5,212.5C 266.521,212.458 265.521,212.458 264.5,212.5C 264.945,215.053 264.945,217.72 264.5,220.5C 263.527,219.209 262.527,219.209 261.5,220.5C 260.675,216.878 260.175,213.211 260,209.5C 259.586,209.043 259.086,208.709 258.5,208.5C 257.452,209.383 256.285,210.05 255,210.5C 252.632,209.283 250.132,208.449 247.5,208C 248.022,207.439 248.355,206.772 248.5,206C 247.571,204.923 246.904,203.756 246.5,202.5C 247.397,203.598 248.23,203.598 249,202.5C 256.098,182.065 254.598,162.398 244.5,143.5C 236.268,127.936 223.934,116.936 207.5,110.5C 205.629,109.203 203.629,108.203 201.5,107.5C 202.552,107.649 203.552,107.483 204.5,107C 203.167,106 201.833,105 200.5,104C 202.911,102.417 205.578,101.417 208.5,101C 201.918,100.19 195.418,100.357 189,101.5C 188.506,99.8659 188.34,98.1992 188.5,96.5C 187.167,96.5 185.833,96.5 184.5,96.5C 183.241,93.5096 181.908,90.5096 180.5,87.5C 185.489,88.4768 190.489,88.3101 195.5,87C 193.167,85.957 190.834,85.1237 188.5,84.5 Z"/></g>
<g><path style="opacity:1" fill="#f0f3f3" d="M 302.5,123.5 C 305.222,128.668 307.556,134.001 309.5,139.5C 311.448,147.74 312.948,156.073 314,164.5C 316.854,194.586 310.187,222.253 294,247.5C 284.346,238.013 274.846,228.346 265.5,218.5C 266.178,216.484 266.844,214.484 267.5,212.5C 270.71,203.133 273.043,193.467 274.5,183.5C 275.249,182.469 275.915,181.302 276.5,180C 281.167,179.667 285.833,179.333 290.5,179C 288.5,178.667 286.5,178.333 284.5,178C 290.5,177.667 296.5,177.333 302.5,177C 304.107,175.951 304.773,174.451 304.5,172.5C 311.5,174.167 314.167,171.5 312.5,164.5C 309.833,164.5 307.167,164.5 304.5,164.5C 303.958,153.692 303.958,143.025 304.5,132.5C 303.167,132.5 301.833,132.5 300.5,132.5C 300.337,130.143 300.503,127.81 301,125.5C 301.333,125.833 301.667,126.167 302,126.5C 302.483,125.552 302.649,124.552 302.5,123.5 Z"/></g>
<g><path style="opacity:1" fill="#273f57" d="M 178.5,155.5 C 187.398,154.846 195.731,156.679 203.5,161C 211.679,167.93 219.679,175.097 227.5,182.5C 233.163,188.996 239.329,194.996 246,200.5C 246.464,201.094 246.631,201.761 246.5,202.5C 246.904,203.756 247.571,204.923 248.5,206C 248.355,206.772 248.022,207.439 247.5,208C 250.132,208.449 252.632,209.283 255,210.5C 256.285,210.05 257.452,209.383 258.5,208.5C 259.086,208.709 259.586,209.043 260,209.5C 260.175,213.211 260.675,216.878 261.5,220.5C 262.527,219.209 263.527,219.209 264.5,220.5C 268.313,224.161 271.646,228.328 274.5,233C 274.167,233.5 273.833,234 273.5,234.5C 272.148,233.104 270.481,232.437 268.5,232.5C 266.476,233.021 264.476,233.188 262.5,233C 260.494,230.726 258.161,228.892 255.5,227.5C 254.5,227.833 253.833,228.5 253.5,229.5C 254.898,231.798 256.731,232.464 259,231.5C 260.073,233.547 261.239,235.547 262.5,237.5C 263.651,238.731 264.817,238.731 266,237.5C 268.972,240.226 269.139,242.893 266.5,245.5C 249.497,230.163 233.163,214.163 217.5,197.5C 216.167,196.833 214.833,196.167 213.5,195.5C 212.893,195.624 212.56,195.957 212.5,196.5C 204.665,188.654 195.998,181.987 186.5,176.5C 191.55,176.817 196.55,176.817 201.5,176.5C 201.833,176.167 202.167,175.833 202.5,175.5C 199.828,171.751 200.828,169.084 205.5,167.5C 206.386,166.675 206.719,165.675 206.5,164.5C 198.599,164.478 191.599,161.978 185.5,157C 182.964,156.814 180.631,156.314 178.5,155.5 Z"/></g>
<g><path style="opacity:1" fill="#253d54" d="M 165.5,188.5 C 164.074,196.02 166.074,202.353 171.5,207.5C 170.522,207.811 169.855,208.478 169.5,209.5C 174.541,211.488 175.208,214.154 171.5,217.5C 166.999,220.396 162.332,220.896 157.5,219C 156.711,215.903 155.544,215.736 154,218.5C 153.095,215.018 151.428,212.018 149,209.5C 147.844,205.582 147.344,201.582 147.5,197.5C 148.468,199.607 148.802,201.941 148.5,204.5C 153.476,203.408 158.476,202.408 163.5,201.5C 163.742,197.92 163.909,194.253 164,190.5C 164.278,189.584 164.778,188.918 165.5,188.5 Z"/></g>
<g><path style="opacity:1" fill="#213646" d="M 156.5,168.5 C 154.689,171.444 152.856,174.444 151,177.5C 150.743,181.377 149.743,185.043 148,188.5C 147.502,191.482 147.335,194.482 147.5,197.5C 147.344,201.582 147.844,205.582 149,209.5C 151.428,212.018 153.095,215.018 154,218.5C 155.544,215.736 156.711,215.903 157.5,219C 162.332,220.896 166.999,220.396 171.5,217.5C 175.208,214.154 174.541,211.488 169.5,209.5C 169.855,208.478 170.522,207.811 171.5,207.5C 173.167,209.5 174.833,211.5 176.5,213.5C 176.062,213.435 175.728,213.601 175.5,214C 185.268,223.42 194.768,232.92 204,242.5C 204.667,243.167 204.667,243.833 204,244.5C 203.311,243.643 202.478,242.977 201.5,242.5C 198.788,244.26 195.788,244.927 192.5,244.5C 193.677,238.204 191.51,233.537 186,230.5C 184.433,231.856 182.6,232.523 180.5,232.5C 180.649,233.552 180.483,234.552 180,235.5C 177.943,232.497 175.943,230.164 174,228.5C 172.521,229.873 172.688,231.373 174.5,233C 174.043,233.414 173.709,233.914 173.5,234.5C 177.375,240.221 181.875,245.555 187,250.5C 187.333,249.833 187.667,249.167 188,248.5C 188.7,250.032 189.866,251.032 191.5,251.5C 192.609,250.41 193.609,250.41 194.5,251.5C 192.995,252.842 192.328,254.508 192.5,256.5C 189.497,255.812 186.831,254.479 184.5,252.5C 172.235,254.209 160.235,253.375 148.5,250C 148.5,249 148.5,248 148.5,247C 146.051,246.275 143.717,245.275 141.5,244C 140.262,243.31 140.262,242.81 141.5,242.5C 154.98,249.787 169.314,252.454 184.5,250.5C 174.844,241.012 165.011,231.678 155,222.5C 152.752,219.672 150.752,216.672 149,213.5C 141.402,196.677 143.902,181.677 156.5,168.5 Z"/></g>
<g><path style="opacity:1" fill="#293c4e" d="M 45.5,148.5 C 42.3389,169.645 43.1723,190.645 48,211.5C 48.7249,214.79 49.8916,217.79 51.5,220.5C 54.4595,229.086 58.4595,237.086 63.5,244.5C 67.7306,251.732 72.7306,258.399 78.5,264.5C 74.699,268.338 70.0323,269.505 64.5,268C 61.7536,266.25 58.7536,265.25 55.5,265C 54.2391,261.569 51.9058,259.402 48.5,258.5C 48.6621,256.473 48.4955,254.473 48,252.5C 47.3333,251.167 46.6667,251.167 46,252.5C 42.4749,248.786 39.9749,244.453 38.5,239.5C 41.0256,236.525 40.359,235.358 36.5,236C 35.283,234.352 34.4497,232.519 34,230.5C 33.31,229.262 32.81,229.262 32.5,230.5C 31.6618,230.158 31.3284,229.492 31.5,228.5C 31.9133,226.605 32.2466,224.605 32.5,222.5C 31.8333,221.833 31.1667,221.167 30.5,220.5C 31.2502,218.07 31.5835,215.736 31.5,213.5C 30.0668,210.667 29.4001,207.667 29.5,204.5C 30.5,204.5 31.5,204.5 32.5,204.5C 31.1928,199.933 30.1928,195.267 29.5,190.5C 31.8969,186.186 32.8969,181.519 32.5,176.5C 33.8333,176.5 35.1667,176.5 36.5,176.5C 36.5,175.5 36.5,174.5 36.5,173.5C 37.8333,173.5 39.1667,173.5 40.5,173.5C 40.8506,166.047 41.8506,158.714 43.5,151.5C 44.1667,150.5 44.8333,149.5 45.5,148.5 Z"/></g>
<g><path style="opacity:1" fill="#eff3f5" d="M 293.5,276.5 C 294.5,276.833 295.167,277.5 295.5,278.5C 299.472,282.807 303.472,287.141 307.5,291.5C 307.833,292.167 308.167,292.833 308.5,293.5C 307.249,295.725 307.582,297.891 309.5,300C 296.964,300.788 284.631,302.622 272.5,305.5C 271.833,305.167 271.167,304.833 270.5,304.5C 267.046,299.874 263.379,295.374 259.5,291C 235.951,270.281 213.285,248.781 191.5,226.5C 192.606,225.27 193.606,224.104 194.5,223C 193.062,222.781 191.729,222.281 190.5,221.5C 193.768,220.513 197.102,220.18 200.5,220.5C 200.5,222.5 200.5,224.5 200.5,226.5C 203.167,226.167 205.833,225.833 208.5,225.5C 208.5,227.5 208.5,229.5 208.5,231.5C 211.167,231.833 213.833,232.167 216.5,232.5C 216.192,234.924 216.526,237.257 217.5,239.5C 219.773,240.375 220.773,242.042 220.5,244.5C 221.833,244.5 223.167,244.5 224.5,244.5C 224.5,245.833 224.5,247.167 224.5,248.5C 225.833,248.5 227.167,248.5 228.5,248.5C 228.5,249.833 228.5,251.167 228.5,252.5C 232.5,252.5 236.5,252.5 240.5,252.5C 239.982,257.212 239.482,261.879 239,266.5C 240.6,267.866 242.433,268.866 244.5,269.5C 243.5,270.167 242.5,270.833 241.5,271.5C 242.851,273.019 244.351,274.352 246,275.5C 246.249,274.376 246.749,273.376 247.5,272.5C 248.244,273.991 248.91,275.491 249.5,277C 251.256,277.202 252.922,277.702 254.5,278.5C 254.755,280.343 254.922,282.343 255,284.5C 260.664,284.309 263.164,286.975 262.5,292.5C 264.451,292.227 265.951,292.893 267,294.5C 269.201,293.004 271.701,292.004 274.5,291.5C 277.086,286.552 281.086,284.219 286.5,284.5C 286.5,283.167 286.5,281.833 286.5,280.5C 289.578,280.413 291.911,279.08 293.5,276.5 Z"/></g>
<g><path style="opacity:1" fill="#1c3045" d="M 176.5,213.5 C 181.687,217.597 186.687,221.93 191.5,226.5C 213.285,248.781 235.951,270.281 259.5,291C 263.379,295.374 267.046,299.874 270.5,304.5C 248.048,317.219 224.048,325.719 198.5,330C 189.84,330.5 181.173,330.666 172.5,330.5C 162.158,330.687 152.158,329.354 142.5,326.5C 144.893,325.79 147.393,325.123 150,324.5C 153,324.5 156,324.5 159,324.5C 160.487,325.253 160.654,326.086 159.5,327C 166.411,328.384 173.411,328.884 180.5,328.5C 179.588,320.914 182.921,316.747 190.5,316C 186.814,315.641 183.314,314.807 180,313.5C 175.238,317.424 170.405,317.424 165.5,313.5C 166.641,312.575 166.641,311.741 165.5,311C 167.134,310.506 168.801,310.34 170.5,310.5C 179.521,310.599 188.521,310.266 197.5,309.5C 205.621,308.242 213.621,306.409 221.5,304C 226.675,302.613 231.342,300.28 235.5,297C 224.074,288.245 213.241,278.745 203,268.5C 202.5,269 202,269.5 201.5,270C 192.173,270.5 182.839,270.666 173.5,270.5C 179.987,269.672 186.654,269.172 193.5,269C 192.949,267.602 192.616,266.268 192.5,265C 193.516,264.481 194.182,263.647 194.5,262.5C 193.246,260.666 192.579,258.666 192.5,256.5C 192.328,254.508 192.995,252.842 194.5,251.5C 193.609,250.41 192.609,250.41 191.5,251.5C 189.866,251.032 188.7,250.032 188,248.5C 187.667,249.167 187.333,249.833 187,250.5C 181.875,245.555 177.375,240.221 173.5,234.5C 173.709,233.914 174.043,233.414 174.5,233C 172.688,231.373 172.521,229.873 174,228.5C 175.943,230.164 177.943,232.497 180,235.5C 180.483,234.552 180.649,233.552 180.5,232.5C 182.6,232.523 184.433,231.856 186,230.5C 191.51,233.537 193.677,238.204 192.5,244.5C 195.788,244.927 198.788,244.26 201.5,242.5C 202.478,242.977 203.311,243.643 204,244.5C 204.667,243.833 204.667,243.167 204,242.5C 194.768,232.92 185.268,223.42 175.5,214C 175.728,213.601 176.062,213.435 176.5,213.5 Z"/></g>
<g><path style="opacity:1" fill="#2a313e" d="M 212.5,196.5 C 212.56,195.957 212.893,195.624 213.5,195.5C 214.833,196.167 216.167,196.833 217.5,197.5C 233.163,214.163 249.497,230.163 266.5,245.5C 266.351,246.552 266.517,247.552 267,248.5C 270.934,252.168 274.767,256.001 278.5,260C 280.81,260.497 283.143,260.663 285.5,260.5C 285.64,262.124 284.973,263.29 283.5,264C 284.774,265.221 286.274,266.054 288,266.5C 290.124,265.412 291.624,266.078 292.5,268.5C 292.901,269.991 293.068,271.658 293,273.5C 294.376,274.705 295.542,276.038 296.5,277.5C 296.5,278.167 296.167,278.5 295.5,278.5C 295.167,277.5 294.5,276.833 293.5,276.5C 287.941,269.206 281.274,263.039 273.5,258C 253.66,236.994 233.327,216.494 212.5,196.5 Z"/></g>
<g><path style="opacity:1" fill="#273d51" d="M 132.5,236.5 C 135.523,238.533 138.523,240.533 141.5,242.5C 140.262,242.81 140.262,243.31 141.5,244C 143.717,245.275 146.051,246.275 148.5,247C 148.5,248 148.5,249 148.5,250C 160.235,253.375 172.235,254.209 184.5,252.5C 186.831,254.479 189.497,255.812 192.5,256.5C 192.579,258.666 193.246,260.666 194.5,262.5C 194.182,263.647 193.516,264.481 192.5,265C 192.616,266.268 192.949,267.602 193.5,269C 186.654,269.172 179.987,269.672 173.5,270.5C 172.5,270.5 171.5,270.5 170.5,270.5C 165.063,270.38 159.73,269.546 154.5,268C 145.699,264.764 137.032,261.264 128.5,257.5C 125.98,255.737 123.647,253.737 121.5,251.5C 122.117,251.389 122.617,251.056 123,250.5C 125.711,253.165 126.711,252.498 126,248.5C 120.808,245.975 116.975,242.141 114.5,237C 116.497,235.847 116.83,234.347 115.5,232.5C 114.614,233.325 114.281,234.325 114.5,235.5C 110.497,235.029 107.331,233.029 105,229.5C 103.5,226.867 103.333,224.2 104.5,221.5C 102.602,220.266 100.935,220.599 99.5,222.5C 97.956,217.427 96.2893,212.427 94.5,207.5C 94.8333,206.5 95.1667,205.5 95.5,204.5C 96.5428,206.783 97.2094,208.783 97.5,210.5C 98.7477,207.421 100.581,204.754 103,202.5C 103.973,204.392 104.64,206.392 105,208.5C 105.333,208.167 105.667,207.833 106,207.5C 106.739,209.221 107.573,210.887 108.5,212.5C 112.572,215.404 115.739,219.071 118,223.5C 122.434,228.478 127.268,232.811 132.5,236.5 Z"/></g>
<g><path style="opacity:1" fill="#bbccd1" d="M 266.5,337.5 C 268.265,336.539 270.265,336.205 272.5,336.5C 272.5,334.5 272.5,332.5 272.5,330.5C 271.167,330.5 269.833,330.5 268.5,330.5C 268.5,329.5 268.5,328.5 268.5,327.5C 269.822,327.33 270.989,327.663 272,328.5C 273.514,326.234 275.681,325.068 278.5,325C 279.167,324 279.833,323 280.5,322C 279.484,321.481 278.818,320.647 278.5,319.5C 279.896,316.079 280.896,312.579 281.5,309C 279.866,308.506 278.199,308.34 276.5,308.5C 274.027,308.912 272.694,307.912 272.5,305.5C 284.631,302.622 296.964,300.788 309.5,300C 307.582,297.891 307.249,295.725 308.5,293.5C 310.5,295.167 312.5,296.833 314.5,298.5C 316.103,299.596 317.603,300.93 319,302.5C 322.016,309.462 323.183,316.795 322.5,324.5C 325.29,324.778 327.79,324.111 330,322.5C 332.078,323.943 332.911,323.276 332.5,320.5C 333.833,320.5 335.167,320.5 336.5,320.5C 336.16,317.856 336.827,315.523 338.5,313.5C 338.291,312.914 337.957,312.414 337.5,312C 340.56,309.99 342.226,307.157 342.5,303.5C 340.845,299.679 339.178,295.845 337.5,292C 336.713,289.901 336.38,287.734 336.5,285.5C 335.167,285.5 333.833,285.5 332.5,285.5C 332.5,283.833 332.5,282.167 332.5,280.5C 331.167,280.5 329.833,280.5 328.5,280.5C 327.712,277.566 327.046,274.566 326.5,271.5C 325.773,267.105 327.44,264.272 331.5,263C 328.833,262.333 328.833,261.667 331.5,261C 330.5,260.167 329.5,259.333 328.5,258.5C 331.998,248.511 335.498,238.511 339,228.5C 340.221,216.232 342.054,204.065 344.5,192C 343.317,188.075 341.984,184.242 340.5,180.5C 338.876,180.64 337.71,179.973 337,178.5C 336.821,174.975 336.321,171.641 335.5,168.5C 335.658,165.098 335.324,161.764 334.5,158.5C 334.892,153.503 335.392,148.503 336,143.5C 337.253,146.257 339.087,148.591 341.5,150.5C 342.615,154.729 344.281,158.729 346.5,162.5C 344.881,165.642 344.215,168.975 344.5,172.5C 345.833,172.5 347.167,172.5 348.5,172.5C 349.833,180.5 351.167,188.5 352.5,196.5C 351.167,196.5 349.833,196.5 348.5,196.5C 348.666,205.839 348.5,215.173 348,224.5C 345.496,234.313 342.33,243.813 338.5,253C 339.167,253.333 339.833,253.667 340.5,254C 339.207,254.49 337.873,254.657 336.5,254.5C 336.5,255.5 336.5,256.5 336.5,257.5C 338.167,258.167 339.833,258.833 341.5,259.5C 343.052,265.06 344.052,270.726 344.5,276.5C 345.833,276.5 347.167,276.5 348.5,276.5C 348.5,277.833 348.5,279.167 348.5,280.5C 352.5,280.5 356.5,280.5 360.5,280.5C 360.5,281.833 360.5,283.167 360.5,284.5C 359.167,284.5 357.833,284.5 356.5,284.5C 356.919,287.325 355.919,289.491 353.5,291C 354.685,292.353 356.019,293.52 357.5,294.5C 356.188,299.364 356.188,304.197 357.5,309C 353.5,310 353.5,311 357.5,312C 356.527,317.407 356.193,322.907 356.5,328.5C 355.167,328.5 353.833,328.5 352.5,328.5C 352.5,329.833 352.5,331.167 352.5,332.5C 351.167,332.5 349.833,332.5 348.5,332.5C 348.5,333.833 348.5,335.167 348.5,336.5C 336.557,338.448 324.557,338.781 312.5,337.5C 308.874,335.019 304.874,333.686 300.5,333.5C 296.524,334.164 292.524,334.497 288.5,334.5C 288.5,335.833 288.5,337.167 288.5,338.5C 284.975,338.785 281.642,338.119 278.5,336.5C 274.547,337.362 270.547,337.695 266.5,337.5 Z"/></g>
<g><path style="opacity:1" fill="#e7eced" d="M 63.5,244.5 C 68.9178,244.06 71.0845,246.393 70,251.5C 73.026,254.026 76.1927,256.36 79.5,258.5C 80.2811,259.729 80.7811,261.062 81,262.5C 82.0674,261.809 83.2341,261.309 84.5,261C 93.8274,260.5 103.161,260.334 112.5,260.5C 112.5,259.5 112.5,258.5 112.5,257.5C 116.423,258.141 120.257,258.141 124,257.5C 125.964,259.688 127.464,259.688 128.5,257.5C 137.032,261.264 145.699,264.764 154.5,268C 159.73,269.546 165.063,270.38 170.5,270.5C 179.324,271.33 188.324,271.83 197.5,272C 196.266,274.924 194.599,277.591 192.5,280C 191.207,280.49 189.873,280.657 188.5,280.5C 188.5,281.833 188.5,283.167 188.5,284.5C 185.833,284.5 183.167,284.5 180.5,284.5C 180.5,285.5 180.5,286.5 180.5,287.5C 182.288,287.215 183.955,287.548 185.5,288.5C 175.856,289.498 166.19,289.832 156.5,289.5C 156.5,290.5 156.5,291.5 156.5,292.5C 159.167,292.5 161.833,292.5 164.5,292.5C 164.5,293.833 164.5,295.167 164.5,296.5C 168.5,296.5 172.5,296.5 176.5,296.5C 176.5,297.833 176.5,299.167 176.5,300.5C 179.167,301.167 181.833,301.833 184.5,302.5C 184.5,303.833 184.5,305.167 184.5,306.5C 189.297,306.561 193.631,307.561 197.5,309.5C 188.521,310.266 179.521,310.599 170.5,310.5C 133.691,307.429 103.024,292.095 78.5,264.5C 72.7306,258.399 67.7306,251.732 63.5,244.5 Z"/></g>
<g><path style="opacity:1" fill="#42556c" d="M 308.5,266.5 C 309.167,266.5 309.5,266.833 309.5,267.5C 308.791,268.404 307.791,268.737 306.5,268.5C 306.509,270.308 306.009,271.975 305,273.5C 303.703,272.216 302.536,272.383 301.5,274C 302.833,275 302.833,276 301.5,277C 299.866,277.494 298.199,277.66 296.5,277.5C 295.542,276.038 294.376,274.705 293,273.5C 293.068,271.658 292.901,269.991 292.5,268.5C 293.852,266.155 295.852,264.488 298.5,263.5C 302.117,263.869 305.45,264.869 308.5,266.5 Z"/></g>
<g><path style="opacity:1" fill="#697888" d="M 309.5,267.5 C 313.212,270.211 316.212,273.544 318.5,277.5C 317.713,279.104 316.38,279.771 314.5,279.5C 314.93,282.862 313.93,285.695 311.5,288C 311.833,288.333 312.167,288.667 312.5,289C 310.97,290.12 309.303,290.954 307.5,291.5C 303.472,287.141 299.472,282.807 295.5,278.5C 296.167,278.5 296.5,278.167 296.5,277.5C 298.199,277.66 299.866,277.494 301.5,277C 302.833,276 302.833,275 301.5,274C 302.536,272.383 303.703,272.216 305,273.5C 306.009,271.975 306.509,270.308 306.5,268.5C 307.791,268.737 308.791,268.404 309.5,267.5 Z"/></g>
<g><path style="opacity:1" fill="#dde3e6" d="M 197.5,309.5 C 193.631,307.561 189.297,306.561 184.5,306.5C 184.5,305.167 184.5,303.833 184.5,302.5C 181.833,301.833 179.167,301.167 176.5,300.5C 176.5,299.167 176.5,297.833 176.5,296.5C 172.5,296.5 168.5,296.5 164.5,296.5C 164.5,295.167 164.5,293.833 164.5,292.5C 161.833,292.5 159.167,292.5 156.5,292.5C 156.5,291.5 156.5,290.5 156.5,289.5C 166.19,289.832 175.856,289.498 185.5,288.5C 183.955,287.548 182.288,287.215 180.5,287.5C 180.5,286.5 180.5,285.5 180.5,284.5C 183.167,284.5 185.833,284.5 188.5,284.5C 188.5,283.167 188.5,281.833 188.5,280.5C 189.873,280.657 191.207,280.49 192.5,280C 194.599,277.591 196.266,274.924 197.5,272C 188.324,271.83 179.324,271.33 170.5,270.5C 171.5,270.5 172.5,270.5 173.5,270.5C 182.839,270.666 192.173,270.5 201.5,270C 202,269.5 202.5,269 203,268.5C 213.241,278.745 224.074,288.245 235.5,297C 231.342,300.28 226.675,302.613 221.5,304C 213.621,306.409 205.621,308.242 197.5,309.5 Z"/></g>
<g><path style="opacity:1" fill="#c0cfd4" d="M 362.5,52.5 C 362.5,153.167 362.5,253.833 362.5,354.5C 297.833,354.5 233.167,354.5 168.5,354.5C 163.604,352.554 158.271,351.887 152.5,352.5C 152.5,351.167 152.5,349.833 152.5,348.5C 155.247,348.813 157.914,348.48 160.5,347.5C 149.791,346.719 139.125,345.719 128.5,344.5C 128.5,343.167 128.5,341.833 128.5,340.5C 125.833,340.5 123.167,340.5 120.5,340.5C 120.5,337.833 120.5,335.167 120.5,332.5C 117.833,332.5 115.167,332.5 112.5,332.5C 111.833,329.833 111.167,327.167 110.5,324.5C 108.5,324.5 106.5,324.5 104.5,324.5C 104.5,322.167 104.5,319.833 104.5,317.5C 106.346,317.778 107.68,317.111 108.5,315.5C 105.266,312.728 102.266,312.895 99.5,316C 97.8659,316.494 96.1992,316.66 94.5,316.5C 94.5514,314.43 93.8847,312.597 92.5,311C 92.8333,310 93.1667,309 93.5,308C 90.8419,303.996 87.1753,301.662 82.5,301C 83.4132,299.586 83.4132,298.086 82.5,296.5C 92.2955,303.955 102.629,310.622 113.5,316.5C 114.915,319.003 116.082,321.669 117,324.5C 120.456,321.851 123.623,322.351 126.5,326C 124.5,326.333 122.5,326.667 120.5,327C 123.197,327.552 125.197,329.052 126.5,331.5C 129.833,333.5 133.167,335.5 136.5,337.5C 139.086,338.48 141.753,338.813 144.5,338.5C 144.5,339.833 144.5,341.167 144.5,342.5C 146.57,342.551 148.403,341.885 150,340.5C 151.472,342.884 153.638,343.884 156.5,343.5C 158.32,343.351 159.82,342.684 161,341.5C 163.333,342.833 165.667,344.167 168,345.5C 170.719,344.556 173.552,344.223 176.5,344.5C 176.5,345.5 176.5,346.5 176.5,347.5C 180.524,347.497 184.524,347.164 188.5,346.5C 201.759,348.514 215.092,349.014 228.5,348C 233.798,346.841 239.131,346.007 244.5,345.5C 244.5,344.167 244.5,342.833 244.5,341.5C 247.167,341.5 249.833,341.5 252.5,341.5C 252.5,340.167 252.5,338.833 252.5,337.5C 254.492,337.328 256.158,337.995 257.5,339.5C 260.276,337.87 263.276,337.203 266.5,337.5C 270.547,337.695 274.547,337.362 278.5,336.5C 281.642,338.119 284.975,338.785 288.5,338.5C 288.5,337.167 288.5,335.833 288.5,334.5C 292.524,334.497 296.524,334.164 300.5,333.5C 304.874,333.686 308.874,335.019 312.5,337.5C 324.557,338.781 336.557,338.448 348.5,336.5C 348.5,335.167 348.5,333.833 348.5,332.5C 349.833,332.5 351.167,332.5 352.5,332.5C 352.5,331.167 352.5,329.833 352.5,328.5C 353.833,328.5 355.167,328.5 356.5,328.5C 356.193,322.907 356.527,317.407 357.5,312C 353.5,311 353.5,310 357.5,309C 356.188,304.197 356.188,299.364 357.5,294.5C 356.019,293.52 354.685,292.353 353.5,291C 355.919,289.491 356.919,287.325 356.5,284.5C 357.833,284.5 359.167,284.5 360.5,284.5C 360.5,283.167 360.5,281.833 360.5,280.5C 356.5,280.5 352.5,280.5 348.5,280.5C 348.5,279.167 348.5,277.833 348.5,276.5C 347.167,276.5 345.833,276.5 344.5,276.5C 344.052,270.726 343.052,265.06 341.5,259.5C 339.833,258.833 338.167,258.167 336.5,257.5C 336.5,256.5 336.5,255.5 336.5,254.5C 337.873,254.657 339.207,254.49 340.5,254C 339.833,253.667 339.167,253.333 338.5,253C 342.33,243.813 345.496,234.313 348,224.5C 348.5,215.173 348.666,205.839 348.5,196.5C 349.833,196.5 351.167,196.5 352.5,196.5C 351.167,188.5 349.833,180.5 348.5,172.5C 347.167,172.5 345.833,172.5 344.5,172.5C 344.215,168.975 344.881,165.642 346.5,162.5C 344.281,158.729 342.615,154.729 341.5,150.5C 339.087,148.591 337.253,146.257 336,143.5C 335.392,148.503 334.892,153.503 334.5,158.5C 332.447,139.343 326.781,121.343 317.5,104.5C 319.69,105.802 321.69,107.469 323.5,109.5C 324.652,106.894 324.818,104.227 324,101.5C 322.152,98.9893 320.319,96.4893 318.5,94C 320.926,89.9831 322.926,85.8165 324.5,81.5C 326.971,81.767 328.638,80.767 329.5,78.5C 326.873,76.656 327.04,75.3227 330,74.5C 336.588,78.7304 342.921,78.397 349,73.5C 349.333,73.8333 349.667,74.1667 350,74.5C 352.087,72.2548 353.421,69.5881 354,66.5C 358.392,62.6447 361.226,57.9781 362.5,52.5 Z"/></g>
<g><path style="opacity:1" fill="#8393a3" d="M 318.5,277.5 C 324.431,282.119 328.431,288.119 330.5,295.5C 330,296.5 329.5,297.5 329,298.5C 324.236,297.608 319.403,297.608 314.5,298.5C 312.5,296.833 310.5,295.167 308.5,293.5C 308.167,292.833 307.833,292.167 307.5,291.5C 309.303,290.954 310.97,290.12 312.5,289C 312.167,288.667 311.833,288.333 311.5,288C 313.93,285.695 314.93,282.862 314.5,279.5C 316.38,279.771 317.713,279.104 318.5,277.5 Z"/></g>
<g><path style="opacity:1" fill="#aec2cb" d="M 335.5,168.5 C 336.321,171.641 336.821,174.975 337,178.5C 337.71,179.973 338.876,180.64 340.5,180.5C 341.984,184.242 343.317,188.075 344.5,192C 342.054,204.065 340.221,216.232 339,228.5C 335.498,238.511 331.998,248.511 328.5,258.5C 329.5,259.333 330.5,260.167 331.5,261C 328.833,261.667 328.833,262.333 331.5,263C 327.44,264.272 325.773,267.105 326.5,271.5C 327.046,274.566 327.712,277.566 328.5,280.5C 329.833,280.5 331.167,280.5 332.5,280.5C 332.5,282.167 332.5,283.833 332.5,285.5C 333.833,285.5 335.167,285.5 336.5,285.5C 336.38,287.734 336.713,289.901 337.5,292C 339.178,295.845 340.845,299.679 342.5,303.5C 342.226,307.157 340.56,309.99 337.5,312C 337.957,312.414 338.291,312.914 338.5,313.5C 336.827,315.523 336.16,317.856 336.5,320.5C 335.167,320.5 333.833,320.5 332.5,320.5C 332.911,323.276 332.078,323.943 330,322.5C 327.79,324.111 325.29,324.778 322.5,324.5C 323.183,316.795 322.016,309.462 319,302.5C 317.603,300.93 316.103,299.596 314.5,298.5C 319.403,297.608 324.236,297.608 329,298.5C 329.5,297.5 330,296.5 330.5,295.5C 328.431,288.119 324.431,282.119 318.5,277.5C 316.212,273.544 313.212,270.211 309.5,267.5C 309.5,266.833 309.167,266.5 308.5,266.5C 314.542,255.419 320.375,244.086 326,232.5C 333.375,211.791 336.542,190.457 335.5,168.5 Z"/></g>
<g><path style="opacity:1" fill="#203447" d="M 78.5,264.5 C 103.024,292.095 133.691,307.429 170.5,310.5C 168.801,310.34 167.134,310.506 165.5,311C 166.641,311.741 166.641,312.575 165.5,313.5C 170.405,317.424 175.238,317.424 180,313.5C 183.314,314.807 186.814,315.641 190.5,316C 182.921,316.747 179.588,320.914 180.5,328.5C 173.411,328.884 166.411,328.384 159.5,327C 160.654,326.086 160.487,325.253 159,324.5C 156,324.5 153,324.5 150,324.5C 147.393,325.123 144.893,325.79 142.5,326.5C 132.413,324.36 122.747,321.027 113.5,316.5C 102.629,310.622 92.2955,303.955 82.5,296.5C 60.1141,278.788 43.4474,256.788 32.5,230.5C 32.81,229.262 33.31,229.262 34,230.5C 34.4497,232.519 35.283,234.352 36.5,236C 40.359,235.358 41.0256,236.525 38.5,239.5C 39.9749,244.453 42.4749,248.786 46,252.5C 46.6667,251.167 47.3333,251.167 48,252.5C 48.4955,254.473 48.6621,256.473 48.5,258.5C 51.9058,259.402 54.2391,261.569 55.5,265C 58.7536,265.25 61.7536,266.25 64.5,268C 70.0323,269.505 74.699,268.338 78.5,264.5 Z"/></g>
<g><path style="opacity:1" fill="#c6d4d9" d="M 24.5,206.5 C 26.3986,213.867 28.7319,221.2 31.5,228.5C 31.3284,229.492 31.6618,230.158 32.5,230.5C 43.4474,256.788 60.1141,278.788 82.5,296.5C 83.4132,298.086 83.4132,299.586 82.5,301C 87.1753,301.662 90.8419,303.996 93.5,308C 93.1667,309 92.8333,310 92.5,311C 93.8847,312.597 94.5514,314.43 94.5,316.5C 96.1992,316.66 97.8659,316.494 99.5,316C 102.266,312.895 105.266,312.728 108.5,315.5C 107.68,317.111 106.346,317.778 104.5,317.5C 104.5,319.833 104.5,322.167 104.5,324.5C 106.5,324.5 108.5,324.5 110.5,324.5C 111.167,327.167 111.833,329.833 112.5,332.5C 115.167,332.5 117.833,332.5 120.5,332.5C 120.5,335.167 120.5,337.833 120.5,340.5C 123.167,340.5 125.833,340.5 128.5,340.5C 128.5,341.833 128.5,343.167 128.5,344.5C 139.125,345.719 149.791,346.719 160.5,347.5C 157.914,348.48 155.247,348.813 152.5,348.5C 152.5,349.833 152.5,351.167 152.5,352.5C 158.271,351.887 163.604,352.554 168.5,354.5C 131.167,354.5 93.8333,354.5 56.5,354.5C 56.5,348.5 56.5,342.5 56.5,336.5C 53.8333,336.5 51.1667,336.5 48.5,336.5C 48.3601,334.876 49.0267,333.71 50.5,333C 49.8333,332.667 49.1667,332.333 48.5,332C 43.2006,332.192 37.8673,332.359 32.5,332.5C 32.5,331.167 32.5,329.833 32.5,328.5C 27.8333,328.5 23.1667,328.5 18.5,328.5C 18.5,327.167 18.5,325.833 18.5,324.5C 20.5,324.5 22.5,324.5 24.5,324.5C 23.9539,318.933 24.6206,313.6 26.5,308.5C 22.6395,307.402 22.6395,306.569 26.5,306C 25.2799,304.475 24.6132,302.641 24.5,300.5C 24.6132,298.359 25.2799,296.525 26.5,295C 22.5,294.333 22.5,293.667 26.5,293C 25.3159,291.82 24.6493,290.32 24.5,288.5C 24.8416,260.482 24.8416,233.148 24.5,206.5 Z"/></g>
<g><path style="opacity:1" fill="#b4c7cf" d="M 276.5,308.5 C 278.199,308.34 279.866,308.506 281.5,309C 280.896,312.579 279.896,316.079 278.5,319.5C 278.818,320.647 279.484,321.481 280.5,322C 279.833,323 279.167,324 278.5,325C 275.681,325.068 273.514,326.234 272,328.5C 270.989,327.663 269.822,327.33 268.5,327.5C 268.5,328.5 268.5,329.5 268.5,330.5C 269.833,330.5 271.167,330.5 272.5,330.5C 272.5,332.5 272.5,334.5 272.5,336.5C 270.265,336.205 268.265,336.539 266.5,337.5C 263.276,337.203 260.276,337.87 257.5,339.5C 256.158,337.995 254.492,337.328 252.5,337.5C 252.5,338.833 252.5,340.167 252.5,341.5C 249.833,341.5 247.167,341.5 244.5,341.5C 244.5,342.833 244.5,344.167 244.5,345.5C 239.131,346.007 233.798,346.841 228.5,348C 215.092,349.014 201.759,348.514 188.5,346.5C 184.524,347.164 180.524,347.497 176.5,347.5C 176.5,346.5 176.5,345.5 176.5,344.5C 173.552,344.223 170.719,344.556 168,345.5C 165.667,344.167 163.333,342.833 161,341.5C 159.82,342.684 158.32,343.351 156.5,343.5C 153.638,343.884 151.472,342.884 150,340.5C 148.403,341.885 146.57,342.551 144.5,342.5C 144.5,341.167 144.5,339.833 144.5,338.5C 141.753,338.813 139.086,338.48 136.5,337.5C 133.167,335.5 129.833,333.5 126.5,331.5C 125.197,329.052 123.197,327.552 120.5,327C 122.5,326.667 124.5,326.333 126.5,326C 123.623,322.351 120.456,321.851 117,324.5C 116.082,321.669 114.915,319.003 113.5,316.5C 122.747,321.027 132.413,324.36 142.5,326.5C 152.158,329.354 162.158,330.687 172.5,330.5C 178.319,331.328 184.319,331.828 190.5,332C 189.5,332.333 188.5,332.667 187.5,333C 187.833,333.333 188.167,333.667 188.5,334C 196.546,334.16 204.546,334.327 212.5,334.5C 224.681,330.395 237.348,327.228 250.5,325C 253.89,324.754 257.223,324.254 260.5,323.5C 261.086,323.709 261.586,324.043 262,324.5C 262.249,323.376 262.749,322.376 263.5,321.5C 266.443,320.756 269.443,320.256 272.5,320C 273.354,318.978 274.354,318.145 275.5,317.5C 276.124,314.423 276.457,311.423 276.5,308.5 Z"/></g>
<g><path style="opacity:1" fill="#a3b8c4" d="M 270.5,304.5 C 271.167,304.833 271.833,305.167 272.5,305.5C 272.694,307.912 274.027,308.912 276.5,308.5C 276.457,311.423 276.124,314.423 275.5,317.5C 274.354,318.145 273.354,318.978 272.5,320C 269.443,320.256 266.443,320.756 263.5,321.5C 262.749,322.376 262.249,323.376 262,324.5C 261.586,324.043 261.086,323.709 260.5,323.5C 257.223,324.254 253.89,324.754 250.5,325C 237.348,327.228 224.681,330.395 212.5,334.5C 204.546,334.327 196.546,334.16 188.5,334C 188.167,333.667 187.833,333.333 187.5,333C 188.5,332.667 189.5,332.333 190.5,332C 184.319,331.828 178.319,331.328 172.5,330.5C 181.173,330.666 189.84,330.5 198.5,330C 224.048,325.719 248.048,317.219 270.5,304.5 Z"/></g>
</svg>
