<svg width="114" height="40" viewBox="0 0 114 40" fill="none" xmlns="http://www.w3.org/2000/svg">
<path fill-rule="evenodd" clip-rule="evenodd" d="M25.5557 11.6853C23.9112 10.5865 21.9778 10 20 10V0C23.9556 0 27.8224 1.17298 31.1114 3.37061C34.4004 5.56823 36.9638 8.69181 38.4776 12.3463C39.9913 16.0008 40.3874 20.0222 39.6157 23.9018C38.844 27.7814 36.9392 31.3451 34.1421 34.1421C31.3451 36.9392 27.7814 38.844 23.9018 39.6157C20.0222 40.3874 16.0008 39.9913 12.3463 38.4776C8.6918 36.9638 5.56823 34.4004 3.37061 31.1114C1.17298 27.8224 0 23.9556 0 20H10C10 21.9778 10.5865 23.9112 11.6853 25.5557C12.7841 27.2002 14.3459 28.4819 16.1732 29.2388C18.0004 29.9957 20.0111 30.1937 21.9509 29.8078C23.8907 29.422 25.6725 28.4696 27.0711 27.0711C28.4696 25.6725 29.422 23.8907 29.8078 21.9509C30.1937 20.0111 29.9957 18.0004 29.2388 16.1732C28.4819 14.3459 27.2002 12.7841 25.5557 11.6853Z" fill="#007DFC"/>
<path fill-rule="evenodd" clip-rule="evenodd" d="M9.99999 5.28493e-06C9.99999 1.31322 9.74134 2.61358 9.23879 3.82684C8.73624 5.04009 7.99965 6.14248 7.07106 7.07107C6.14248 7.99966 5.04009 8.73625 3.82683 9.2388C2.61357 9.74134 1.31321 10 4.3711e-07 10L0 20C2.62643 20 5.22715 19.4827 7.65367 18.4776C10.0802 17.4725 12.285 15.9993 14.1421 14.1421C15.9993 12.285 17.4725 10.0802 18.4776 7.65367C19.4827 5.22715 20 2.62643 20 0L9.99999 5.28493e-06Z" fill="#007DFC"/>
<path d="M53.042 14.4525H48.19V29.8648H53.042V14.4525Z" fill="#007DFC"/>
<path d="M48.73 11.5666C49.237 12.074 49.871 12.3277 50.632 12.3277C51.393 12.3277 52.017 12.074 52.503 11.5666C52.99 11.0381 53.233 10.4038 53.233 9.66385C53.233 8.90277 52.99 8.26849 52.503 7.76111C52.017 7.25369 51.393 7 50.632 7C49.871 7 49.237 7.25369 48.73 7.76111C48.243 8.26849 48 8.90277 48 9.66385C48 10.4038 48.243 11.0381 48.73 11.5666Z" fill="#007DFC"/>
<path d="M86.23 30.7611C84.814 30.7611 83.556 30.4757 82.457 29.9049C81.378 29.3129 80.533 28.5095 79.92 27.4947C79.306 26.4588 79 25.2749 79 23.9429V15H83.852V23.8795C83.852 24.408 83.936 24.8626 84.106 25.2431C84.296 25.6237 84.571 25.9197 84.93 26.1311C85.29 26.3425 85.723 26.4482 86.23 26.4482C86.949 26.4482 87.52 26.2262 87.943 25.7822C88.366 25.3171 88.577 24.6829 88.577 23.8795V15H93.429V23.9112C93.429 25.2643 93.123 26.4588 92.509 27.4947C91.896 28.5095 91.051 29.3129 89.972 29.9049C88.894 30.4757 87.647 30.7611 86.23 30.7611Z" fill="#007DFC"/>
<path d="M58.0559 22.3517C58.045 20.9357 58.3206 19.6755 58.8829 18.5722C59.4665 17.4886 60.2634 16.6374 61.2734 16.0166C62.3045 15.3946 63.486 15.0795 64.818 15.0692L73.7606 15L73.7981 19.8519L64.9189 19.9205C64.3904 19.9246 63.9365 20.0121 63.5573 20.1851C63.1782 20.378 62.8843 20.6553 62.6757 21.0159C62.4671 21.3775 62.3648 21.8113 62.3687 22.3183C62.3742 23.0373 62.6006 23.6066 63.0479 24.0261C63.5163 24.4455 64.1521 24.6516 64.9554 24.6454L73.8347 24.5767L73.8722 29.4286L64.9613 29.4975C63.6082 29.5079 62.4114 29.2112 61.3708 28.6052C60.3512 28.0001 59.5413 27.1613 58.941 26.0869C58.3619 25.0134 58.0669 23.7686 58.0559 22.3517Z" fill="#007DFC"/>
<path d="M100.891 28.5L104.184 29.6529L113.892 29.6529L113.86 26.5628L104.854 26.6571C104.326 26.6626 103.881 26.5997 103.52 26.4691C103.159 26.3245 102.882 26.1319 102.69 25.8918C102.476 25.6514 102.367 25.3768 102.364 25.0672C102.359 24.6227 102.577 24.2504 103.018 23.9496C103.438 23.635 104.039 23.4739 104.821 23.4657L113.827 23.3715L113.794 20.2814L104.788 20.3757C104.26 20.3812 103.815 20.3183 103.455 20.1877C103.094 20.0431 102.817 19.8511 102.624 19.6104C102.41 19.3706 102.301 19.0954 102.298 18.7858C102.293 18.3413 102.512 17.969 102.952 17.6682C103.372 17.3542 103.973 17.1932 104.755 17.185L113.761 17.0907L113.729 14L104.184 14.0999C102.894 14.1134 101.797 14.3001 100.891 14.6599C99.9645 15.0065 99.2612 15.4782 98.7813 16.0755C98.2798 16.6598 98.0331 17.3292 98.041 18.0833C98.0491 18.8507 98.3206 19.5415 98.8557 20.155C99.1965 20.5539 99.6348 20.9009 100.17 21.1966C99.6164 21.4833 99.1643 21.8294 98.8139 22.2363C98.3334 22.7795 98.0966 23.3947 98.1038 24.0813C98.1114 24.8086 98.289 26.4262 98.7813 27C98.9862 27.2501 100.891 28.5 100.891 28.5Z" fill="#007DFC"/>
</svg>
